<?xml version="1.0" encoding="UTF-8"?>
<svg version="1.1" xmlns="http://www.w3.org/2000/svg" width="1563" height="1563">
<path d="M0 0 C1.05525879 0.21994629 2.11051758 0.43989258 3.19775391 0.66650391 C30.57595326 6.55950821 57.68254593 16.10630865 83 28 C84.83312158 28.84290858 86.66645737 29.68535145 88.5 30.52734375 C126.85208762 48.30251521 161.54159743 72.82575958 192.44677734 101.56445312 C194.08641084 103.07986415 195.73904423 104.58005727 197.39453125 106.078125 C202.58265316 110.78694569 207.64552989 115.44433826 212.14453125 120.83203125 C214.09576841 123.11189783 216.13854145 125.29242091 218.19750977 127.47485352 C224.44750978 134.11799711 230.16042269 141.0515025 235.69287109 148.29882812 C236.94275202 149.92549422 238.21131238 151.53517701 239.48828125 153.140625 C251.34156826 168.18881713 261.38527992 184.45543822 271 201 C271.49258301 201.83128418 271.98516602 202.66256836 272.49267578 203.51904297 C272.96044434 204.32615723 273.42821289 205.13327148 273.91015625 205.96484375 C274.33562744 206.69179443 274.76109863 207.41874512 275.19946289 208.16772461 C275.46364014 208.77237549 275.72781738 209.37702637 276 210 C275.67 210.66 275.34 211.32 275 212 C274.35933594 211.09378906 273.71867188 210.18757812 273.05859375 209.25390625 C268.18586258 202.38215438 263.2785526 195.56886546 258 189 C257.00613281 187.7625 257.00613281 187.7625 255.9921875 186.5 C253.68088759 183.6502252 251.34128566 180.82517618 249 178 C247.83017578 176.54787109 247.83017578 176.54787109 246.63671875 175.06640625 C239.67903225 166.57305609 232.00639225 158.81804867 224.25 151.0625 C223.70666016 150.51825378 223.16332031 149.97400757 222.60351562 149.41326904 C216.58460455 143.39549241 210.52741514 137.47156164 204 132 C203.09797852 131.23780151 203.09797852 131.23780151 202.17773438 130.46020508 C186.04252598 116.93726104 169.01926243 104.87833536 151 94 C150.19256348 93.51176758 149.38512695 93.02353516 148.55322266 92.52050781 C97.02728741 61.63141721 37.99033319 42.47249359 -22 38 C-22.73734375 37.94360352 -23.4746875 37.88720703 -24.234375 37.82910156 C-126.23908651 30.39858594 -230.91479407 62.33919209 -309 129 C-309.59296875 129.50418457 -310.1859375 130.00836914 -310.796875 130.52783203 C-312.78567601 132.22179329 -314.76893883 133.92199526 -316.75 135.625 C-317.36456055 136.1516626 -317.97912109 136.6783252 -318.61230469 137.22094727 C-322.36298043 140.47116182 -325.91846221 143.85076137 -329.38183594 147.40600586 C-331.01832685 149.01805311 -332.72349934 150.48247632 -334.5 151.9375 C-337.62372784 154.57271534 -340.22754794 157.44157 -342.8671875 160.5546875 C-345.04114239 163.04717058 -347.29294921 165.44451769 -349.56762695 167.84448242 C-356.53925611 175.22281524 -362.89429836 182.89665455 -369 191 C-369.54269531 191.71285156 -370.08539063 192.42570313 -370.64453125 193.16015625 C-382.66988657 208.98584959 -393.4044341 225.47881234 -402.88476562 242.95019531 C-403.64286029 244.34357595 -404.40743321 245.73344735 -405.17773438 247.12011719 C-416.27514319 267.10796221 -424.95680159 288.26694318 -432 310 C-432.2882666 310.87624023 -432.5765332 311.75248047 -432.87353516 312.65527344 C-440.80442955 336.93634412 -445.81206983 361.67587968 -449 387 C-449.11859375 387.90927246 -449.2371875 388.81854492 -449.359375 389.75537109 C-461.93754691 489.42615298 -430.08346028 593.65270228 -368.9375 674.75 C-358.02591116 688.75670299 -346.22363874 701.96364948 -333.67138672 714.51391602 C-332.1282647 716.05923066 -330.59335694 717.61240446 -329.05859375 719.16601562 C-322.69747535 725.56308727 -316.07735107 731.39002343 -309 737 C-307.70602121 738.07247715 -306.41525897 739.14885651 -305.12890625 740.23046875 C-279.57996741 761.50124872 -250.91868918 778.60873179 -221 793 C-224.39466945 794.13155648 -225.02237192 793.89719968 -228.26171875 792.734375 C-229.1213623 792.42693359 -229.98100586 792.11949219 -230.86669922 791.80273438 C-231.79756348 791.45533203 -232.72842773 791.10792969 -233.6875 790.75 C-234.65703613 790.39228516 -235.62657227 790.03457031 -236.62548828 789.66601562 C-248.01936719 785.36891642 -259.02296253 780.25635469 -270 775 C-271.12462646 774.46656982 -271.12462646 774.46656982 -272.27197266 773.92236328 C-299.64049373 760.8900431 -324.68738586 744.1780373 -348.34814453 725.31542969 C-349.83080483 724.13473597 -351.31933076 722.96141695 -352.80859375 721.7890625 C-364.78048734 712.21866317 -375.65277124 701.43038219 -386.5 690.625 C-387.336521 689.79315186 -388.17304199 688.96130371 -389.03491211 688.10424805 C-393.8948274 683.23165769 -398.55254045 678.25181857 -403 673 C-403.72445312 672.14535156 -404.44890625 671.29070313 -405.1953125 670.41015625 C-407.48541997 667.62401336 -409.75163202 664.81984555 -412 662 C-412.46647949 661.41669922 -412.93295898 660.83339844 -413.41357422 660.23242188 C-427.92739268 641.97233411 -440.80822023 622.46124511 -452 602 C-452.47888672 601.13117187 -452.95777344 600.26234375 -453.45117188 599.3671875 C-461.68569325 584.33302883 -468.63468431 568.90933235 -475 553 C-475.33338379 552.1764502 -475.66676758 551.35290039 -476.01025391 550.50439453 C-489.70837133 516.36503309 -497.4447773 479.53689025 -501 443 C-501.08619598 442.12791901 -501.17239197 441.25583801 -501.26119995 440.35733032 C-501.96951034 432.62208453 -502.17591196 424.94475574 -502.203125 417.1796875 C-502.20882507 415.8821756 -502.21452515 414.5846637 -502.22039795 413.24783325 C-502.23082272 410.50978211 -502.2367183 407.77175951 -502.24023438 405.03369141 C-502.24458174 402.28615772 -502.25834367 399.53894467 -502.28125 396.79150391 C-502.42909139 378.67384178 -501.62143474 360.95678639 -499 343 C-498.89522339 342.26322021 -498.79044678 341.52644043 -498.68249512 340.76733398 C-498.11803191 336.84969339 -497.46702221 332.95490626 -496.75 329.0625 C-496.53947998 327.91249512 -496.32895996 326.76249023 -496.11206055 325.57763672 C-490.13499579 294.02544529 -480.12410524 263.28763509 -467 234 C-466.57638184 233.05108887 -466.15276367 232.10217773 -465.71630859 231.12451172 C-447.86227579 191.54214114 -423.02958684 155.61983053 -393.59765625 123.81640625 C-391.1204379 121.13058003 -388.68123449 118.4149255 -386.25 115.6875 C-380.85725776 109.69130703 -375.25731146 104.12674982 -369.14453125 98.8671875 C-366.84892571 96.86846355 -364.615204 94.81054771 -362.375 92.75 C-356.72289275 87.65185119 -350.76586395 82.99467516 -344.74072266 78.35107422 C-343.12132906 77.09417041 -341.51889876 75.81549445 -339.91796875 74.53515625 C-270.60727919 19.63824295 -180.14909646 -9.06540684 0 0 Z " fill="#005F9F" transform="translate(527,388)"/>
<path d="M0 0 C0 4.05039071 -2.04784149 5.64178517 -4.625 8.5 C-52.87843461 63.9123914 -83.86995148 141.52624972 -84.203125 215.28125 C-84.21013931 216.32499283 -84.21715363 217.36873566 -84.22438049 218.44410706 C-84.24179486 221.79611573 -84.24823329 225.14794774 -84.25 228.5 C-84.25067474 229.64516083 -84.25134949 230.79032166 -84.25204468 231.97018433 C-84.23623407 248.84246976 -83.83280833 265.32926843 -81 282 C-80.74259033 283.5778125 -80.74259033 283.5778125 -80.47998047 285.1875 C-69.74200333 349.67293909 -41.70931544 410.24090546 2 459 C2.44907715 459.50547363 2.8981543 460.01094727 3.36083984 460.53173828 C13.26512377 471.6573458 23.55145598 482.58788956 35.26953125 491.8203125 C38.18245177 494.1456482 40.95351251 496.59866657 43.75 499.0625 C104.72596558 551.2597884 189.37593018 577.2632625 269 575 C270.19206055 574.97897217 270.19206055 574.97897217 271.40820312 574.95751953 C342.70224294 573.63067343 413.36860149 548.00261651 470 505 C470 509.33532076 467.34910774 511.22045719 464.5 514.1875 C463.67677246 515.05979248 463.67677246 515.05979248 462.83691406 515.94970703 C461.23353056 517.64195842 459.61931428 519.32300155 458 521 C457.24203125 521.78761719 456.4840625 522.57523438 455.703125 523.38671875 C451.33363621 527.83485834 446.73352444 531.94604095 442 536 C440.98113501 536.89380698 439.96295982 537.78840063 438.9453125 538.68359375 C419.0773248 556.07096408 397.35409228 570.69608943 374 583 C373.02764404 583.51506104 373.02764404 583.51506104 372.03564453 584.04052734 C339.53856922 601.12541738 304.97568052 612.58423384 268.8125 618.75 C267.06972778 619.04825684 267.06972778 619.04825684 265.29174805 619.35253906 C247.41436677 622.24226341 229.59646941 623.38529673 211.5 623.3125 C210.07266037 623.30976578 210.07266037 623.30976578 208.6164856 623.30697632 C154.03429271 623.13213744 101.86694896 610.09716225 53 586 C52.15050781 585.58218262 51.30101562 585.16436523 50.42578125 584.73388672 C11.56682981 565.41161948 -27.02837573 535.89428563 -53.9453125 501.61328125 C-56.14098803 498.82068253 -58.43944077 496.1356131 -60.75 493.4375 C-73.54030929 478.02606415 -84.03142426 461.34413505 -94 444 C-94.67289063 442.83452637 -94.67289063 442.83452637 -95.359375 441.64550781 C-129.69516432 381.53000654 -142.99071641 306.57296375 -135 238 C-134.87496094 236.9181543 -134.74992187 235.83630859 -134.62109375 234.72167969 C-126.26337986 165.6893972 -97.42879779 99.89975216 -51 48 C-50.34257812 47.25645264 -49.68515625 46.51290527 -49.0078125 45.74682617 C-43.40276235 39.447941 -37.58422836 33.40111014 -31.625 27.4375 C-30.75617188 26.55642578 -29.88734375 25.67535156 -28.9921875 24.76757812 C-22.97865805 18.74070504 -16.67610638 13.27867289 -10 8 C-8.91221105 7.12437996 -7.82484139 6.24823816 -6.73828125 5.37109375 C-5.53751953 4.41396484 -5.53751953 4.41396484 -4.3125 3.4375 C-3.48363281 2.77621094 -2.65476563 2.11492188 -1.80078125 1.43359375 C-1.20652344 0.96050781 -0.61226562 0.48742187 0 0 Z " fill="#FFCA05" transform="translate(229,557)"/>
<path d="M0 0 C20.71767319 19.91381285 33.28366342 50.26072459 39 78 C39.33644531 79.53527344 39.33644531 79.53527344 39.6796875 81.1015625 C45.08383402 109.75094198 39.13012004 140.87185088 22.94140625 165.078125 C3.37797425 192.27861869 -25.97423564 202.59650364 -55.78076172 215.17333984 C-71.84990739 221.97750577 -85.64247881 229.52716757 -98 242 C-98.59167969 242.55816406 -99.18335938 243.11632813 -99.79296875 243.69140625 C-104.64425027 248.67274894 -107.30237378 255.25112587 -110.265625 261.453125 C-112 265 -112 265 -114 268 C-114.25669509 260.74458869 -113.33656652 254.16161543 -111.875 247.0625 C-111.64981689 245.96220459 -111.42463379 244.86190918 -111.19262695 243.72827148 C-103.81254214 208.97836923 -86.55309564 178.49023669 -62 153 C-61.31035156 152.2471875 -60.62070312 151.494375 -59.91015625 150.71875 C-52.77290036 143.15682054 -44.30249211 137.20101526 -36 131 C-7.362291 109.91569004 -7.362291 109.91569004 8.71875 79.0234375 C8.8115625 78.35570312 8.904375 77.68796875 9 77 C8.50693359 78.10794922 8.50693359 78.10794922 8.00390625 79.23828125 C-1.22126192 98.91363992 -17.85563542 111.51663288 -35 124 C-66.58768029 147.24600252 -93.82065591 172.20969981 -111 208 C-120.28384824 198.71615176 -121.26989799 174.31373505 -121.375 161.8125 C-121.28783854 150.25643468 -119.53131988 139.29126522 -114 129 C-113.57976562 128.20207031 -113.15953125 127.40414062 -112.7265625 126.58203125 C-100.40963964 104.63613278 -77.37102996 92.53276528 -55.89990234 81.13867188 C-44.63240191 75.15832529 -34.12918254 68.75826243 -24 61 C-23.18660156 60.401875 -22.37320313 59.80375 -21.53515625 59.1875 C-12.14781386 51.75198127 -5.08077514 40.10184678 -1 29 C-0.75636719 28.35160156 -0.51273438 27.70320312 -0.26171875 27.03515625 C2.3629352 18.58984117 1.63772299 8.59804571 0 0 Z " fill="#7BB040" transform="translate(612,822)"/>
<path d="M0 0 C7.6587996 7.57732301 14.73944121 15.58462413 21.50390625 23.96484375 C25.0530775 28.28050269 28.72189628 32.48864996 32.39575195 36.69824219 C33.43823583 37.89340581 34.47640051 39.09235352 35.50976562 40.29541016 C36.4941363 41.42137281 37.50331154 42.52617481 38.53710938 43.60693359 C39.953125 45.13671875 39.953125 45.13671875 42 48 C41.59384005 51.7452596 40.32075868 55.18498568 39.07421875 58.7265625 C34.465066 72.03014316 30.21610608 85.07741633 28 99 C27.88575684 99.68126953 27.77151367 100.36253906 27.65380859 101.06445312 C18.0296548 160.77698068 37.71270313 222.83580375 72.125 271.4375 C79.10949587 281.08003002 86.77293805 290.00406949 94.90625 298.6796875 C96.93700789 300.84659269 98.93492492 303.03673282 100.90625 305.2578125 C139.7167186 348.74778954 194.03448231 373.97915211 249 390 C249 390.33 249 390.66 249 391 C239.38112449 390.51685595 230.19165254 389.36134573 220.75 387.4375 C220.10958771 387.30817078 219.46917542 387.17884155 218.80935669 387.04559326 C150.12990789 373.05641279 84.64211492 335.46128202 39 282 C38.18789063 281.07703125 37.37578125 280.1540625 36.5390625 279.203125 C5.55442378 243.71460937 -15.88123371 199.63811823 -25.3125 153.5625 C-25.45985596 152.84360596 -25.60721191 152.12471191 -25.7590332 151.3840332 C-28.40973716 137.4379452 -29.38197856 123.54348723 -29.3125 109.375 C-29.31067719 108.59518768 -29.30885437 107.81537537 -29.30697632 107.01193237 C-29.18441142 75.68043156 -23.88074114 23.88074114 0 0 Z " fill="#000000" transform="translate(224,642)"/>
<path d="M0 0 C-4.05494169 4.26961507 -8.46232655 7.85055566 -13.125 11.4375 C-13.90544678 12.04150635 -14.68589355 12.6455127 -15.48999023 13.26782227 C-22.04293467 18.31582796 -28.6821724 23.24349178 -35.36572266 28.11694336 C-36.10226074 28.65456299 -36.83879883 29.19218262 -37.59765625 29.74609375 C-38.32355957 30.26929199 -39.04946289 30.79249023 -39.79736328 31.33154297 C-42.05669474 33.00103571 -42.05669474 33.00103571 -44.27685547 35.00048828 C-50.02920471 39.97239896 -50.02920471 39.97239896 -54.984375 40.11328125 C-56.96289062 39.64306641 -56.96289062 39.64306641 -59 39 C-59.71865234 38.79938965 -60.43730469 38.5987793 -61.17773438 38.39208984 C-63.55122452 37.7019441 -65.89836586 36.94859815 -68.25 36.1875 C-129.04941337 17.34601513 -197.53050012 26.87580115 -254 55 C-255.38541992 55.68449219 -255.38541992 55.68449219 -256.79882812 56.3828125 C-279.67146265 67.76586681 -300.47643071 81.52613749 -320 98 C-320.53447754 98.44424316 -321.06895508 98.88848633 -321.61962891 99.34619141 C-333.28841443 109.04522471 -344.22116025 119.37690538 -354 131 C-354.7940625 131.90492188 -355.588125 132.80984375 -356.40625 133.7421875 C-383.38113116 164.65894256 -402.38102648 201.09866169 -415 240 C-416.09619457 236.6504895 -415.88979464 234.28165594 -415.21484375 230.84375 C-415.01737549 229.83183594 -414.81990723 228.81992187 -414.61645508 227.77734375 C-414.3923999 226.69582031 -414.16834473 225.61429688 -413.9375 224.5 C-413.70635498 223.37722656 -413.47520996 222.25445313 -413.23706055 221.09765625 C-408.12271606 196.96247051 -399.57857187 173.67380091 -387.98876953 151.88037109 C-386.96295556 149.92955154 -385.97741416 147.96182036 -384.99609375 145.98828125 C-373.93379501 124.02917866 -359.0444224 104.52041351 -343 86 C-342.319375 85.2059375 -341.63875 84.411875 -340.9375 83.59375 C-329.98657762 71.10285416 -318.15228947 59.15888077 -305 49 C-303.86340937 48.0772603 -302.72946873 47.15125053 -301.59765625 46.22265625 C-286.60100979 33.95557928 -270.97723644 23.33634542 -254 14 C-253.13165527 13.5153125 -252.26331055 13.030625 -251.36865234 12.53125 C-176.27901068 -29.17465837 -77.8165241 -41.91835682 0 0 Z " fill="#FFCA05" transform="translate(786,598)"/>
<path d="M0 0 C2.43601114 2.43601114 2.73733172 4.07926909 3.61987305 7.39599609 C3.92326096 8.52411713 4.22664886 9.65223816 4.53923035 10.81454468 C4.86015152 12.03847931 5.18107269 13.26241394 5.51171875 14.5234375 C5.8442012 15.77629547 6.17668365 17.02915344 6.51924133 18.31997681 C7.22232557 20.97350635 7.92012338 23.62835932 8.61450195 26.28417969 C9.50448554 29.68568923 10.40935276 33.08303276 11.31848431 36.47946739 C12.18350872 39.72094871 13.0343436 42.96610695 13.88671875 46.2109375 C14.21371262 47.43082367 14.54070648 48.65070984 14.87760925 49.90756226 C15.17154068 51.04198761 15.46547211 52.17641296 15.76831055 53.34521484 C16.03097214 54.34289886 16.29363373 55.34058289 16.56425476 56.36849976 C17.00399894 59.02414991 16.93286779 60.50260082 16 63 C14.80761719 64.5612793 14.80761719 64.5612793 13.296875 66.07421875 C12.73540771 66.64994629 12.17394043 67.22567383 11.59545898 67.81884766 C10.98645752 68.43550293 10.37745605 69.0521582 9.75 69.6875 C-34.92553963 116.41741631 -54.21516023 179.29667619 -53.18193054 243.00196838 C-52.26491752 283.57435988 -40.83756257 324.25338705 -21.99121094 360.10742188 C-21.00194514 361.99628602 -20.0348231 363.89527135 -19.0703125 365.796875 C-3.0993659 396.94102667 21.13130719 426.79458108 49 448 C49.80824219 448.61746094 50.61648438 449.23492188 51.44921875 449.87109375 C53.28953481 451.26176889 55.13755655 452.63918889 57 454 C56.67 454.66 56.34 455.32 56 456 C38.97038083 445.88181692 22.85875281 435.13192478 8 422 C6.81664062 420.98292969 6.81664062 420.98292969 5.609375 419.9453125 C-7.27877257 408.67914268 -19.55640089 396.53827604 -29.70800781 382.73193359 C-31.04065526 380.94550106 -32.4162696 379.20039376 -33.8046875 377.45703125 C-79.84638199 319.01327416 -100.40999059 240.52027628 -92.35498047 166.95996094 C-88.44157579 134.32851781 -78.6759477 102.90628719 -63 74 C-62.37738281 72.83855469 -61.75476563 71.67710937 -61.11328125 70.48046875 C-53.19613392 56.17179072 -43.79408894 43.253667 -33 31 C-32.38640625 30.27554688 -31.7728125 29.55109375 -31.140625 28.8046875 C-21.87795599 17.91002443 -11.46689452 8.51370359 0 0 Z " fill="#ED1C24" transform="translate(372,554)"/>
<path d="M0 0 C-2.88085912 11.08338291 -6.5754191 21.82019912 -10.42236328 32.60009766 C-11.22744479 34.87609545 -12.018374 37.15714648 -12.79541016 39.44287109 C-13.92669406 42.7663445 -15.10252554 46.07091269 -16.2890625 49.375 C-16.6269278 50.39682373 -16.96479309 51.41864746 -17.31289673 52.47143555 C-19.84283432 59.30412328 -19.84283432 59.30412328 -23.10900879 61.26828003 C-25.40435069 62.05167775 -27.61475114 62.57390601 -30 63 C-30.95422852 63.27730957 -31.90845703 63.55461914 -32.89160156 63.84033203 C-33.7162793 64.06060059 -34.54095703 64.28086914 -35.390625 64.5078125 C-73.53455809 74.97213483 -108.46997784 94.4223326 -137.34765625 121.53515625 C-139.45711064 123.49548868 -141.58945942 125.36054683 -143.8125 127.1875 C-146.89373324 129.79469735 -149.47324033 132.69598526 -152.078125 135.7734375 C-153.40565247 137.31142664 -154.77347943 138.81521393 -156.171875 140.2890625 C-180.0540426 165.49801719 -198.2516662 197.47035807 -210 230 C-210.33483398 230.9182959 -210.66966797 231.8365918 -211.01464844 232.78271484 C-233.03822859 293.88005528 -231.73115297 353.76571795 -216 416 C-218.63497104 413.67193783 -219.87270324 411.456334 -221.234375 408.23046875 C-221.64018799 407.27060059 -222.04600098 406.31073242 -222.46411133 405.32177734 C-223.10062622 403.77031006 -223.10062622 403.77031006 -223.75 402.1875 C-224.19174561 401.1145166 -224.63349121 400.0415332 -225.08862305 398.93603516 C-234.86642646 374.77994431 -241.01421319 349.8750971 -244 324 C-244.09571289 323.21737793 -244.19142578 322.43475586 -244.29003906 321.62841797 C-251.69672289 253.0435876 -233.52039754 177.65272877 -194 121 C-193.06853908 119.62792402 -192.13758076 118.25550677 -191.20703125 116.8828125 C-185.09064825 107.95287331 -178.5535362 99.57933972 -171.34472656 91.5078125 C-170.143345 90.16072962 -168.95731214 88.79999432 -167.7734375 87.4375 C-157.75216564 76.02751257 -147.00074357 65.31526249 -135 56 C-133.91127961 55.12292873 -132.82411777 54.24392032 -131.73828125 53.36328125 C-99.60584685 27.44326932 -61.53137329 9.82077065 -21 2 C-19.85660156 1.77441406 -18.71320313 1.54882812 -17.53515625 1.31640625 C-11.59964723 0.2310988 -6.03150062 -0.20105002 0 0 Z " fill="#005F9F" transform="translate(586,517)"/>
<path d="M0 0 C3.03464905 2.74390423 4.96387368 6.07668081 7.0625 9.5625 C8.36538797 11.59750742 9.6701348 13.63132569 10.9765625 15.6640625 C11.63946289 16.71625977 12.30236328 17.76845703 12.98535156 18.85253906 C16.16101908 23.81384609 19.54879423 28.62035253 22.9375 33.4375 C24.27415006 35.35366981 25.61008352 37.27033968 26.9453125 39.1875 C27.61079102 40.14140625 28.27626953 41.0953125 28.96191406 42.078125 C36.99765544 53.59845955 45.0331295 65.11938198 53 76.6875 C53.39614502 77.26169678 53.79229004 77.83589355 54.20043945 78.42749023 C56.89044956 82.34201128 59.5308749 86.28848946 62.1640625 90.24145508 C62.88287598 91.320345 63.60168945 92.39923492 64.34228516 93.51081848 C64.88933105 94.33224838 65.43637695 95.15367828 66 96 C66.00364563 95.18282501 66.00729126 94.36565002 66.01104736 93.52371216 C66.04906718 85.78587337 66.10607677 78.04850864 66.18390274 70.31097603 C66.22324889 66.33392928 66.25549978 62.35709967 66.27099609 58.37988281 C66.28624834 54.53462249 66.32084279 50.68995966 66.36830902 46.84496689 C66.38303526 45.38517352 66.39103594 43.9252948 66.39188385 42.4654274 C66.40621364 30.15367901 68.39929693 20.23423701 77 11 C85.26213525 3.10901535 93.73367745 -0.11591015 105 0 C105.0935899 18.34175197 105.16405084 36.68344166 105.20724869 55.02538109 C105.22784253 63.54255549 105.25590205 72.05958121 105.30175781 80.57666016 C105.34172324 88.00325296 105.3674559 95.42973805 105.37635398 102.85643542 C105.38155238 106.78605213 105.39370344 110.71536076 105.42292023 114.64487839 C105.4502432 118.35000542 105.45841133 122.05469999 105.45243073 125.75991821 C105.45404116 127.75476625 105.47547507 129.74956812 105.49768066 131.74429321 C105.44150657 144.09086493 101.77756997 152.63004602 93.48046875 161.65234375 C87.44736812 167.421221 79.14481497 171.29925897 70.75 171.3125 C68.89375 171.1578125 68.89375 171.1578125 67 171 C67.09023437 170.28199219 67.18046875 169.56398438 67.2734375 168.82421875 C67.65147197 157.14876949 61.07002143 150.27695518 54.07177734 141.58837891 C50.54762405 137.18547138 47.15919339 132.67957549 43.75 128.1875 C43.06800537 127.29611328 42.38601074 126.40472656 41.68334961 125.48632812 C37.63475221 120.19106346 33.6965339 114.83983175 29.86621094 109.38549805 C25.43673874 103.12203353 20.74493684 97.05681956 16.05859375 90.984375 C12.18486502 85.9446148 8.42626032 80.83727417 4.7421875 75.65820312 C4.28384521 75.01514221 3.82550293 74.3720813 3.35327148 73.70953369 C2.23484587 72.14016529 1.11732849 70.5701497 0 69 C-0.00364563 69.87759476 -0.00729126 70.75518951 -0.01104736 71.65937805 C-0.04907282 79.97079508 -0.10608928 88.2818255 -0.18390274 96.59296894 C-0.22324261 100.86480961 -0.25549664 105.1364483 -0.27099609 109.40844727 C-0.28625237 113.53898169 -0.3208542 117.66896034 -0.36830902 121.79924583 C-0.38303108 123.36706877 -0.39103569 124.9349711 -0.39188385 126.50286293 C-0.40674714 140.21440069 -2.58911327 151.13332178 -12.125 161.5625 C-17.449359 166.74886266 -24.81803349 170.78551463 -32.359375 171.09765625 C-33.14828125 171.08605469 -33.9371875 171.07445312 -34.75 171.0625 C-35.54921875 171.05347656 -36.3484375 171.04445313 -37.171875 171.03515625 C-38.07679688 171.01775391 -38.07679688 171.01775391 -39 171 C-39.04678349 153.16248154 -39.08201992 135.32497907 -39.10362434 117.48741245 C-39.11392363 109.20455941 -39.12795813 100.92174455 -39.15087891 92.63891602 C-39.17085412 85.4170585 -39.18372623 78.19522865 -39.18817699 70.97334427 C-39.19077739 67.15173061 -39.19686122 63.33019609 -39.21146011 59.50860786 C-39.22510939 55.90616543 -39.2292079 52.30383417 -39.22621536 48.70136833 C-39.22702157 46.76004488 -39.23774457 44.81873332 -39.24884033 42.87744141 C-39.22030066 30.69555011 -37.27457991 20.05300524 -28.921875 10.6640625 C-21.76323095 3.93093226 -10.24893803 -2.76827883 0 0 Z " fill="#005F9F" transform="translate(1024,665)"/>
<path d="M0 0 C0.495 0.99 0.495 0.99 1 2 C0.40149293 3.684241 -0.25590061 5.34763783 -0.9375 7 C-6.09397499 22.07277306 -3.09865496 37.12728385 3.50390625 51.20703125 C11.72817111 66.3277881 24.83149978 79.01164763 38.13671875 89.64453125 C41.79292044 92.65229335 45.26106949 95.83444865 48.7277832 99.05664062 C51.45251467 101.58830186 54.21319365 104.04757161 57.0625 106.4375 C60.566784 109.47700528 63.7272233 112.78700077 66.875 116.1875 C67.35203369 116.69917725 67.82906738 117.21085449 68.32055664 117.73803711 C70.68633905 120.33585063 72.64651993 122.74075776 74 126 C69.33978448 128.88043472 64.64147255 131.67040251 59.8203125 134.2734375 C51.60291602 138.71989183 43.760928 143.26700132 36.32714844 148.95214844 C32.29199927 152 32.29199927 152 29 152 C27.16265267 149.93674931 25.51793509 147.89763209 23.875 145.6875 C22.88113147 144.38601329 21.88632959 143.08523882 20.890625 141.78515625 C20.15295898 140.81473389 20.15295898 140.81473389 19.40039062 139.82470703 C17.52589347 137.38223986 15.58343327 135.00050703 13.625 132.625 C12.90441406 131.74585938 12.18382812 130.86671875 11.44140625 129.9609375 C10.13367944 128.37492642 8.82465702 126.78995552 7.50732422 125.21191406 C-7.90288359 106.74966935 -21.60638348 88.84481866 -23 64 C-24.75130595 95.44567136 -7.08006721 116.22483873 12.53955078 138.76904297 C14.03167892 140.48735235 15.51629251 142.21191925 17 143.9375 C17.444646 144.44474609 17.88929199 144.95199219 18.34741211 145.47460938 C21.45756494 149.10242763 23.73871438 152.81766849 26 157 C25.35933594 157.59425781 24.71867187 158.18851563 24.05859375 158.80078125 C7.47648719 174.69093702 3.36807457 191.8256578 2 214 C-3.13384576 212.35310294 -7.13402918 209.2696515 -11.4375 206.125 C-12.2308374 205.54709717 -13.0241748 204.96919434 -13.84155273 204.3737793 C-38.14891171 186.46476339 -55.70171762 166.01745013 -61.46875 135.671875 C-66.73652732 99.26223764 -56.04272601 65.2475566 -34.625 35.8125 C-30.55831644 30.52581137 -26.1475819 25.63910009 -21.578125 20.7890625 C-19.78145058 18.84538745 -18.08694365 16.91604127 -16.41796875 14.87109375 C-14.39909352 12.47388326 -12.44219622 10.4570786 -10.0625 8.4375 C-9.38316406 7.85742188 -8.70382812 7.27734375 -8.00390625 6.6796875 C-7.34261719 6.12539063 -6.68132812 5.57109375 -6 5 C-5.39027344 4.48695313 -4.78054688 3.97390625 -4.15234375 3.4453125 C-2.77308919 2.29104272 -1.38733192 1.14454883 0 0 Z " fill="#009444" transform="translate(481,766)"/>
<path d="M0 0 C8.28259595 6.12251694 12.05514019 12.65105017 14.68359375 22.41015625 C14.97047562 23.43308777 15.25735748 24.45601929 15.55293274 25.50994873 C16.56834656 29.16411014 17.55654809 32.82518257 18.5390625 36.48828125 C18.93111381 37.94409669 19.32318402 39.39990705 19.715271 40.85571289 C22.68213496 51.89129418 25.59653342 62.94059705 28.50385666 73.99198532 C30.69306824 82.31103095 32.88867129 90.62839119 35.0859375 98.9453125 C35.32397535 99.84670519 35.56201321 100.74809788 35.80726433 101.6768055 C38.70780291 112.65485663 41.64527113 123.62063687 44.6796875 134.5625 C44.97305496 135.62242157 45.26642242 136.68234314 45.56867981 137.77438354 C46.85750203 142.42237677 48.15798663 147.06662519 49.47729492 151.70605469 C49.91348852 153.26751115 50.34946037 154.82902958 50.78515625 156.390625 C50.98292664 157.06880783 51.18069702 157.74699066 51.38446045 158.44572449 C52.3064267 161.78279164 52.8256175 164.20362441 51.5390625 167.48828125 C38.15418377 169.40410528 28.15084724 166.9685079 16.7890625 159.73828125 C8.60709866 151.55631741 5.76295864 141.60776194 3.5390625 130.48828125 C-9.6609375 130.15828125 -22.8609375 129.82828125 -36.4609375 129.48828125 C-36.9559375 133.44828125 -36.9559375 133.44828125 -37.4609375 137.48828125 C-40.02452231 148.00555226 -44.29768057 155.93304395 -53.2734375 162.171875 C-62.63633449 167.80633265 -73.71188283 170.11582795 -84.4609375 167.48828125 C-85.9445033 164.52114965 -84.91052687 162.72755727 -84.0559082 159.55078125 C-83.71924637 158.28558151 -83.38258453 157.02038177 -83.03572083 155.71684265 C-82.6528497 154.30728698 -82.2698445 152.89776773 -81.88671875 151.48828125 C-81.49077714 150.01109423 -81.09546194 148.53373919 -80.70072937 147.05622864 C-79.62487126 143.03677997 -78.54003386 139.01980533 -77.45324707 135.00329971 C-76.31809964 130.80371665 -75.18973577 126.60231135 -74.06054688 122.40112305 C-72.65014763 117.15618029 -71.2383556 111.9116202 -69.82254028 106.6681366 C-66.93177146 95.96177756 -64.05934047 85.25074554 -61.20561218 74.53445435 C-59.61797971 68.57288232 -58.02395067 62.61302783 -56.42790318 56.65370369 C-55.3382983 52.58453515 -54.25135825 48.51469813 -53.17080688 44.44311523 C-52.15372237 40.61170972 -51.12827643 36.78263723 -50.09656715 32.95514488 C-49.72094672 31.55600831 -49.34826798 30.15607793 -48.97885704 28.75528908 C-45.89945943 17.08907596 -42.82710809 6.47704553 -31.92578125 -0.0234375 C-21.2526803 -5.50931707 -10.60593768 -6.515076 0 0 Z M-16.4609375 47.48828125 C-19.51269857 56.99925247 -22.13460624 66.58336573 -24.60791016 76.2578125 C-25.2192756 78.64585047 -25.83790675 81.03193201 -26.45703125 83.41796875 C-26.84939003 84.94389948 -27.24133305 86.46993719 -27.6328125 87.99609375 C-27.8171283 88.70541046 -28.00144409 89.41472717 -28.19134521 90.14553833 C-28.91996103 93.01398606 -29.4609375 95.5148188 -29.4609375 98.48828125 C-20.5509375 98.48828125 -11.6409375 98.48828125 -2.4609375 98.48828125 C-6.7509375 81.65828125 -11.0409375 64.82828125 -15.4609375 47.48828125 C-15.7909375 47.48828125 -16.1209375 47.48828125 -16.4609375 47.48828125 Z " fill="#005F9F" transform="translate(1356.4609375,667.51171875)"/>
<path d="M0 0 C1.35476979 0.00373811 2.70954232 0.0065813 4.0643158 0.00857544 C7.60049123 0.01614918 11.13649789 0.03574246 14.67260742 0.0579834 C18.29278278 0.07857807 21.91298586 0.08760605 25.53320312 0.09765625 C32.61465166 0.11899542 39.69598659 0.15305405 46.77734375 0.1953125 C46.86861109 12.76858891 43.0379121 21.56532294 34.58984375 30.9453125 C27.23780359 37.97059532 17.78370173 40.2010523 7.8984375 40.44140625 C6.81240234 40.47427734 5.72636719 40.50714844 4.60742188 40.54101562 C2.3419018 40.6023164 0.07626939 40.6595948 -2.18945312 40.71289062 C-3.81657227 40.76413086 -3.81657227 40.76413086 -5.4765625 40.81640625 C-6.45955322 40.8414624 -7.44254395 40.86651855 -8.45532227 40.89233398 C-11.39325907 41.21399076 -13.58083723 41.88180182 -16.22265625 43.1953125 C-18.88573412 47.38014915 -18.79824506 52.39001803 -18.22265625 57.1953125 C-16.59865441 60.82998329 -15.56152581 61.96939946 -12.22265625 64.1953125 C-8.88524823 65.05390448 -5.7103869 65.33368293 -2.2734375 65.40625 C-1.34208984 65.43460938 -0.41074219 65.46296875 0.54882812 65.4921875 C2.47312593 65.5437427 4.39762978 65.58816486 6.32226562 65.625 C20.29491534 66.08595339 32.48831322 71.3327391 42.7109375 80.93359375 C54.17113746 93.47698842 57.48696985 107.61324954 56.90917969 124.08740234 C56.0398983 137.98624585 48.83671787 149.89753137 38.77734375 159.1953125 C26.72747612 168.63980335 14.46714612 170.80366233 -0.48828125 170.5859375 C-2.01811984 170.57845739 -3.54796814 170.57277285 -5.07781982 170.56878662 C-9.06296237 170.55366911 -13.0475019 170.51451163 -17.03240967 170.4699707 C-21.11527352 170.42871418 -25.19823684 170.41071142 -29.28125 170.390625 C-37.26199244 170.34800009 -45.24224889 170.27992266 -53.22265625 170.1953125 C-53.34086305 158.74687355 -50.37273998 149.54417876 -42.22265625 141.1953125 C-34.19510186 133.98947627 -26.10177701 131.14192865 -15.34765625 130.984375 C-14.0328125 130.95601562 -12.71796875 130.92765625 -11.36328125 130.8984375 C-9.28971544 130.85716273 -7.2163913 130.82023309 -5.14257812 130.79394531 C-3.12738369 130.76624833 -1.11248335 130.7192827 0.90234375 130.671875 C2.10117188 130.65205566 3.3 130.63223633 4.53515625 130.61181641 C8.91289603 130.04943508 11.54828014 128.48892212 14.5625 125.31640625 C16.75877516 121.48175219 16.40803336 117.4715267 15.77734375 113.1953125 C13.64675237 109.54287013 11.63729759 107.78398915 7.77734375 106.1953125 C5.39838433 105.89598229 5.39838433 105.89598229 2.84765625 105.921875 C1.89407227 105.90431152 0.94048828 105.88674805 -0.04199219 105.86865234 C-1.05036133 105.8527002 -2.05873047 105.83674805 -3.09765625 105.8203125 C-20.54930516 105.26832049 -34.69037307 100.99226102 -47.08203125 87.9765625 C-56.63881348 75.55972136 -60.35948365 61.73195365 -59.22265625 46.1953125 C-57.19289462 31.64584471 -50.46863701 19.62084109 -38.9609375 10.37890625 C-26.66672771 1.81801671 -14.75253168 -0.11824683 0 0 Z " fill="#005F9F" transform="translate(1474.22265625,664.8046875)"/>
<path d="M0 0 C10.33612295 7.50709467 14.64105803 17.07674004 17.81542969 29.13696289 C18.04034592 29.96733063 18.26526215 30.79769836 18.49699402 31.65322876 C19.22889265 34.36205731 19.95046261 37.07351811 20.671875 39.78515625 C21.18118427 41.67818628 21.69114326 43.57104161 22.20172119 45.46372986 C23.53648605 50.41851619 24.86247316 55.37560959 26.18658447 60.33325195 C27.54222574 65.40264027 28.90624044 70.46977396 30.26953125 75.53710938 C32.93784136 85.46006297 35.59687452 95.38547653 38.25 105.3125 C40.12695816 100.44410215 41.80512969 95.64301774 43.16357422 90.59960938 C43.5075827 89.33048706 43.85159119 88.06136475 44.20602417 86.75378418 C44.38484005 86.08685043 44.56365593 85.41991669 44.74789047 84.73277283 C45.31718621 82.60963721 45.89131643 80.48785802 46.46658325 78.36633301 C47.69037442 73.8495499 48.90790892 69.33109225 50.125 64.8125 C51.53101139 59.59509634 52.93972709 54.37844026 54.35315323 49.16304016 C54.91010526 47.10365719 55.46323617 45.04327626 56.01608276 42.98278809 C57.85735147 36.15628863 59.795222 29.36752584 61.87939453 22.61132812 C62.18374578 21.61416401 62.18374578 21.61416401 62.49424553 20.59685516 C65.41444497 11.27094295 70.26541668 5.00135794 78.25 -0.6875 C88.99610239 -6.22820955 99.71293121 -7.10589075 111.25 -3.6875 C109.07573782 5.54556824 106.39583126 14.58693673 103.55859375 23.6328125 C103.09575328 25.1174533 102.63322703 26.60219209 102.17098999 28.08702087 C100.93583416 32.05183804 99.6966658 36.01538961 98.45654678 39.97865677 C97.16457987 44.10941209 95.87566861 48.2411204 94.58666992 52.37280273 C94.06416349 54.04759225 93.54165678 55.72238168 93.01914978 57.39717102 C92.75976057 58.22862452 92.50037136 59.06007801 92.23312187 59.91672707 C91.44361437 62.44684823 90.65360839 64.97681337 89.86354065 67.50675964 C86.7229751 77.56684297 83.60228183 87.63280687 80.50435448 97.70610046 C79.87519451 99.75131532 79.24528156 101.79629655 78.61506653 103.84118652 C78.41260158 104.49815899 78.21013662 105.15513145 78.00153637 105.83201218 C77.60151718 107.12995535 77.20147346 108.42789096 76.801404 109.72581863 C75.84218163 112.8390678 74.88559622 115.95309363 73.93234253 119.06817627 C72.88303405 122.49621902 71.82698803 125.92211985 70.76953125 129.34765625 C70.4694516 130.33499252 70.16937195 131.3223288 69.86019897 132.33958435 C66.16635981 144.25045417 61.87144181 154.84707424 50.5625 161.375 C43.74233377 164.38173995 36.55001082 164.67197417 29.4453125 162.42578125 C19.75082337 157.99106814 14.27711183 151.1764807 10.51068115 141.39186096 C9.84579771 139.43540059 9.221575 137.47087559 8.61328125 135.49609375 C8.37696487 134.74812027 8.1406485 134.00014679 7.89717102 133.22950745 C7.11222384 130.73839442 6.33724561 128.24430293 5.5625 125.75 C4.99768061 123.94842734 4.43240044 122.14699908 3.86669922 120.34570312 C1.98342868 114.33805451 0.11621957 108.32546294 -1.75 102.3125 C-2.42493341 100.14077718 -3.09990139 97.96906511 -3.77490234 95.79736328 C-8.42694386 80.82195731 -13.04966499 65.837595 -17.66119385 50.84967041 C-18.7631625 47.26973941 -19.86650877 43.69023554 -20.97021484 40.11083984 C-22.75175735 34.33250659 -24.53023632 28.55323952 -26.30621338 22.77319336 C-26.97390281 20.60137017 -27.64247354 18.42981771 -28.31195068 16.25854492 C-29.23280173 13.27084071 -30.15009799 10.2820688 -31.06640625 7.29296875 C-31.34050827 6.40618942 -31.61461029 5.5194101 -31.89701843 4.60575867 C-32.26619133 3.39748161 -32.26619133 3.39748161 -32.64282227 2.16479492 C-32.85802017 1.46464767 -33.07321808 0.76450043 -33.29493713 0.0431366 C-33.75 -1.6875 -33.75 -1.6875 -33.75 -3.6875 C-22.07433675 -7.14695578 -10.54814886 -6.5724459 0 0 Z " fill="#005F9F" transform="translate(649.75,671.6875)"/>
<path d="M0 0 C0.71142654 -0.00175232 1.42285309 -0.00350464 2.15583801 -0.00531006 C4.48298657 -0.00967492 6.81005784 -0.00681156 9.13720703 -0.00341797 C10.76148493 -0.0040921 12.38576273 -0.00506304 14.01004028 -0.00631714 C17.40074634 -0.00778644 20.79142594 -0.0056626 24.18212891 -0.00097656 C28.53694679 0.00474768 32.8917034 0.00141995 37.24651909 -0.00454903 C40.59382596 -0.00815211 43.94111815 -0.0070177 47.28842545 -0.00442123 C48.89526502 -0.00375267 50.50210591 -0.00457793 52.10894394 -0.00690079 C54.34480108 -0.0094261 56.58055672 -0.00558974 58.81640625 0 C60.08990936 0.00079559 61.36341248 0.00159119 62.67550659 0.00241089 C65.52001953 0.12939453 65.52001953 0.12939453 66.52001953 1.12939453 C67.44860806 12.83392895 65.94117553 23.75010646 58.52001953 33.12939453 C52.60821151 39.02875664 45.32714013 42.27261082 36.95751953 42.31689453 C35.82314453 42.25501953 34.68876953 42.19314453 33.52001953 42.12939453 C33.52001953 40.80939453 33.52001953 39.48939453 33.52001953 38.12939453 C29.29007644 38.21040392 25.06156088 38.32323959 20.83251953 38.44189453 C19.03524414 38.47573242 19.03524414 38.47573242 17.20166016 38.51025391 C15.46625977 38.56342773 15.46625977 38.56342773 13.69580078 38.61767578 C12.63272705 38.64385986 11.56965332 38.67004395 10.47436523 38.69702148 C7.03215739 39.20079391 5.23580783 39.95463206 2.52001953 42.12939453 C-0.38851962 46.8108557 -0.89899055 50.77948713 -0.80810547 56.16674805 C-0.80617943 57.34107391 -0.80617943 57.34107391 -0.80421448 58.53912354 C-0.7953729 61.1125588 -0.76383708 63.68508137 -0.72998047 66.25830078 C-0.71462334 68.05378198 -0.69990314 69.84926872 -0.68579102 71.64476013 C-0.65233503 75.40147522 -0.60685482 79.15782069 -0.55371094 82.91430664 C-0.48723172 87.72503978 -0.45732004 92.53522332 -0.43722534 97.34634495 C-0.41658623 101.05179918 -0.37322677 104.75673111 -0.32336426 108.4618969 C-0.30285853 110.23561294 -0.29018 112.00943761 -0.28552246 113.78326607 C-0.27626505 116.26362182 -0.23559276 118.74158018 -0.18701172 121.22143555 C-0.19092422 121.95144272 -0.19483673 122.68144989 -0.1988678 123.43357849 C-0.09081657 127.1765262 0.4504095 129.03417185 2.67875671 132.08242798 C5.99946507 134.47480749 7.6322058 134.76363171 11.68725586 134.78881836 C13.51858818 134.818283 13.51858818 134.818283 15.38691711 134.8483429 C16.69541122 134.84441025 18.00390533 134.8404776 19.35205078 134.83642578 C20.71256212 134.84954888 22.073054 134.864855 23.43351746 134.88224792 C27.00265819 134.92204103 30.57128862 134.93228452 34.140625 134.9362793 C37.78742904 134.94562174 41.43393459 134.98304204 45.08056641 135.01806641 C52.22700675 135.08258344 59.37328596 135.11587163 66.52001953 135.12939453 C66.53799849 136.73596157 66.55085166 138.34258655 66.56152344 139.94921875 C66.5692276 140.84389862 66.57693176 141.73857849 66.58486938 142.66036987 C66.38415938 150.3019901 61.7301066 157.75757526 56.52001953 163.12939453 C46.49281313 171.3334725 36.20329592 173.25392201 23.50439453 173.33251953 C22.76731262 173.3382196 22.03023071 173.34391968 21.27081299 173.34979248 C19.72124637 173.35917089 18.17166045 173.36574765 16.62207031 173.36962891 C14.2895105 173.37931361 11.95784148 173.4103962 9.62548828 173.44189453 C-6.41761978 173.55483057 -19.27113327 170.77532692 -31.21044922 159.55126953 C-39.68331499 150.50965718 -40.78693771 139.59250459 -40.75463867 127.66943359 C-40.7597496 126.67609009 -40.76486053 125.68274658 -40.77012634 124.65930176 C-40.78392463 121.40447817 -40.78307264 118.14986873 -40.78076172 114.89501953 C-40.78465459 112.61114424 -40.78899046 110.32726966 -40.79374695 108.043396 C-40.80118865 103.26572316 -40.80093319 98.48812425 -40.7956543 93.71044922 C-40.78986881 87.62046793 -40.8067787 81.53079168 -40.82999897 75.44086075 C-40.84480999 70.7256293 -40.84559791 66.01047002 -40.84248924 61.29521942 C-40.84299896 59.05158638 -40.84817031 56.80794891 -40.85830116 54.56433868 C-40.98926686 21.50104268 -40.98926686 21.50104268 -29.88623047 9.39111328 C-21.61187499 1.52657258 -11.0213655 0.00685964 0 0 Z " fill="#005F9F" transform="translate(538.47998046875,663.87060546875)"/>
<path d="M0 0 C1.03548477 -0.00058411 2.07096954 -0.00116821 3.13783264 -0.00177002 C6.5197341 0.00099008 9.90072552 0.03198385 13.2824707 0.06347656 C15.64329039 0.07094632 18.00411633 0.07663578 20.36494446 0.08062744 C26.54801864 0.09582575 32.73071091 0.13505754 38.91363525 0.17944336 C45.23509558 0.22052151 51.55661822 0.23866518 57.87817383 0.25878906 C70.25920006 0.30155742 82.63994412 0.36973816 95.02075195 0.45410156 C94.7448447 2.50875018 94.4574225 4.56185425 94.1652832 6.61425781 C94.00648682 7.75773682 93.84769043 8.90121582 93.68408203 10.0793457 C92.0772286 18.25436779 87.58518267 26.26819019 80.69262695 31.07910156 C71.56287917 36.764693 63.40123487 38.5211431 52.74731445 38.47753906 C51.13590576 38.47246338 51.13590576 38.47246338 49.49194336 38.46728516 C48.26870361 38.46075928 48.26870361 38.46075928 47.02075195 38.45410156 C47.0296344 39.72228729 47.03851685 40.99047302 47.04766846 42.29708862 C47.1289019 54.27286566 47.18878829 66.24858648 47.22800064 78.22457695 C47.24883812 84.38095496 47.277086 90.53710979 47.32250977 96.69335938 C47.36610383 102.63912258 47.38991793 108.58467168 47.40026093 114.53058243 C47.40762792 116.79429619 47.42201381 119.0579988 47.44367218 121.32162094 C47.47288583 124.50259088 47.47670038 127.68268614 47.47485352 130.86376953 C47.48923462 131.79094284 47.50361572 132.71811615 47.51843262 133.67338562 C47.45327784 144.10548949 43.65932938 151.72114886 36.52075195 159.18847656 C27.37791576 167.47417187 19.3392238 169.45410156 7.02075195 169.45410156 C7.02075195 126.22410156 7.02075195 82.99410156 7.02075195 38.45410156 C-8.48924805 38.45410156 -23.99924805 38.45410156 -39.97924805 38.45410156 C-39.97924805 27.22358189 -37.80593764 18.7166161 -29.97924805 10.45410156 C-21.52076581 2.44178102 -11.40371777 -0.17233379 0 0 Z " fill="#005F9F" transform="translate(1176.979248046875,665.5458984375)"/>
<path d="M0 0 C0 42.9 0 85.8 0 130 C22.77 130 45.54 130 69 130 C67.71572878 144.12698343 64.73532038 153.46690004 54 163 C46.58564631 168.3378998 41.19198521 170.15746848 32.11035156 170.11352539 C31.31972824 170.11367142 30.52910492 170.11381744 29.71452332 170.1139679 C27.10652911 170.11327236 24.4986067 170.10549675 21.890625 170.09765625 C20.08030232 170.0957908 18.26997913 170.09436749 16.45965576 170.09336853 C11.69869591 170.08955339 6.93776663 170.07973165 2.17681885 170.06866455 C-2.68289781 170.05842887 -7.54261942 170.05386629 -12.40234375 170.04882812 C-21.93490926 170.0381085 -31.46745208 170.0210441 -41 170 C-41.09369902 152.36197555 -41.16410387 134.72402946 -41.20724869 117.08581257 C-41.22781959 108.89493267 -41.25583462 100.70420797 -41.30175781 92.51342773 C-41.34179415 85.36917245 -41.36747252 78.22502965 -41.37635398 71.08066529 C-41.38154052 67.30241248 -41.3936144 63.52448127 -41.42292023 59.74633217 C-41.45035599 56.17990258 -41.45838921 52.61392272 -41.45243073 49.04739761 C-41.45403171 47.13542651 -41.4754056 45.22350278 -41.49768066 43.31166077 C-41.44562286 32.22906829 -39.4647112 21.57922162 -32.03125 12.99609375 C-22.94545606 4.06755393 -12.72013693 0 0 0 Z " fill="#005F9F" transform="translate(841,665)"/>
<path d="M0 0 C0.79921875 0.00902344 1.5984375 0.01804687 2.421875 0.02734375 C3.02515625 0.03894531 3.6284375 0.05054688 4.25 0.0625 C4.32024984 17.71781184 4.37306613 35.37307973 4.40543652 53.0284996 C4.42086976 61.22721799 4.44189108 69.42584927 4.47631836 77.62451172 C4.50632969 84.77498285 4.52560071 91.92539084 4.53226548 99.0759232 C4.53615798 102.85799433 4.54523091 106.63988493 4.56719017 110.42189789 C4.58774136 113.99073501 4.59379674 117.55931938 4.58932304 121.12821007 C4.59052588 123.0439262 4.60656959 124.9596156 4.6232605 126.8752594 C4.57804676 139.69426486 2.42670381 150.57376559 -6.63671875 160.03125 C-13.85084705 166.72097212 -22.4576075 171.21912896 -32.47265625 171.109375 C-33.27582275 171.10260742 -34.07898926 171.09583984 -34.90649414 171.08886719 C-35.81902954 171.07581543 -35.81902954 171.07581543 -36.75 171.0625 C-36.82019756 153.11188172 -36.8730407 135.16129925 -36.90543652 117.2105732 C-36.92088077 108.87503587 -36.94192339 100.53958402 -36.97631836 92.20410156 C-37.00629571 84.93572234 -37.02559274 77.66740505 -37.03226548 70.39896572 C-37.03616368 66.55324373 -37.04527354 62.70769886 -37.06719017 58.86203384 C-37.08768736 55.23574967 -37.09380736 51.60971407 -37.08932304 47.98337746 C-37.09053041 46.03149352 -37.10660286 44.0796361 -37.1232605 42.12782288 C-37.07965284 29.61529987 -34.29634943 20.1230263 -25.7109375 10.86328125 C-18.63450602 4.099413 -9.90753373 -0.14569903 0 0 Z " fill="#005F9F" transform="translate(963.75,664.9375)"/>
<path d="M0 0 C2.16751739 2.10048077 3.40732627 3.621259 4.9375 6.125 C5.34790527 6.74648926 5.75831055 7.36797852 6.18115234 8.00830078 C7.4809201 9.98953882 8.74019795 11.99316757 10 14 C10.87634953 15.3506207 11.75523063 16.6996024 12.63671875 18.046875 C14.78760735 21.34631243 16.90254508 24.66636392 19 28 C22.22811949 25.0646341 24.07327967 22.25218118 26.01171875 18.359375 C26.90600586 16.75449219 26.90600586 16.75449219 27.81835938 15.1171875 C29.05236098 12.89417939 30.21890125 10.63220291 31.31054688 8.3359375 C33.43386578 4.70850955 35.1751682 1.83682008 39 0 C47.22758971 -1.44344294 55.72260354 -0.71882731 64 0 C64.1162134 10.25787499 64.20487679 20.51559154 64.25906086 30.77399254 C64.28507599 35.53820543 64.32032496 40.30196558 64.37719727 45.06591797 C64.43180724 49.6695458 64.46148124 54.2727401 64.47438622 58.87666702 C64.48357437 60.6268559 64.50151622 62.37702295 64.52865028 64.1270256 C64.80207609 82.50424463 64.80207609 82.50424463 59 90 C53.05836764 95.76203585 47.3555409 98 39 98 C38.67 79.85 38.34 61.7 38 43 C29.67954407 52.64744943 29.67954407 52.64744943 22.21875 62.70703125 C21.8165625 63.13371094 21.414375 63.56039062 21 64 C20.01 64 19.02 64 18 64 C16.0546875 61.9453125 16.0546875 61.9453125 13.875 59.125 C9.50724254 53.50931184 4.79169937 48.25772175 0 43 C-0.0093457 44.07894531 -0.01869141 45.15789063 -0.02832031 46.26953125 C-0.06843208 50.30297938 -0.13424773 54.33568163 -0.20751953 58.36865234 C-0.23560703 60.10846314 -0.25688194 61.84839865 -0.27099609 63.58837891 C-0.29259653 66.1012297 -0.33932986 68.61260033 -0.390625 71.125 C-0.39246796 72.27705933 -0.39246796 72.27705933 -0.39434814 73.45239258 C-0.57885813 80.3782078 -2.86902248 85.46586457 -7.3125 90.75 C-12.0123971 94.68479757 -15.64424562 97.05167084 -21.734375 97.609375 C-22.53584961 97.68639648 -23.33732422 97.76341797 -24.16308594 97.84277344 C-24.76926758 97.8946582 -25.37544922 97.94654297 -26 98 C-26.04647502 88.37666714 -26.08194597 78.75337331 -26.10362434 69.12995243 C-26.11403231 64.66073181 -26.12813657 60.19158834 -26.15087891 55.72241211 C-26.1727143 51.40411566 -26.18459106 47.08589313 -26.18975449 42.7675457 C-26.19343112 41.12544022 -26.20061038 39.48333848 -26.21146011 37.84126472 C-26.35169078 15.72502933 -26.35169078 15.72502933 -20 8 C-14.27622587 2.31710997 -8.48543012 -1.68900368 0 0 Z " fill="#005F9F" transform="translate(1197,880)"/>
<path d="M0 0 C2.16751739 2.10048077 3.40732627 3.621259 4.9375 6.125 C5.34790527 6.74648926 5.75831055 7.36797852 6.18115234 8.00830078 C7.4809201 9.98953882 8.74019795 11.99316757 10 14 C10.87634953 15.3506207 11.75523063 16.6996024 12.63671875 18.046875 C14.78760735 21.34631243 16.90254508 24.66636392 19 28 C22.22811949 25.0646341 24.07327967 22.25218118 26.01171875 18.359375 C26.90600586 16.75449219 26.90600586 16.75449219 27.81835938 15.1171875 C29.05236098 12.89417939 30.21890125 10.63220291 31.31054688 8.3359375 C33.43386578 4.70850955 35.1751682 1.83682008 39 0 C47.22758971 -1.44344294 55.72260354 -0.71882731 64 0 C64.1162134 10.25787499 64.20487679 20.51559154 64.25906086 30.77399254 C64.28507599 35.53820543 64.32032496 40.30196558 64.37719727 45.06591797 C64.43180724 49.6695458 64.46148124 54.2727401 64.47438622 58.87666702 C64.48357437 60.6268559 64.50151622 62.37702295 64.52865028 64.1270256 C64.80207609 82.50424463 64.80207609 82.50424463 59 90 C53.05836764 95.76203585 47.3555409 98 39 98 C38.67 79.85 38.34 61.7 38 43 C29.67954407 52.64744943 29.67954407 52.64744943 22.21875 62.70703125 C21.8165625 63.13371094 21.414375 63.56039062 21 64 C20.01 64 19.02 64 18 64 C16.0546875 61.9453125 16.0546875 61.9453125 13.875 59.125 C9.50724254 53.50931184 4.79169937 48.25772175 0 43 C-0.0093457 44.07894531 -0.01869141 45.15789063 -0.02832031 46.26953125 C-0.06843208 50.30297938 -0.13424773 54.33568163 -0.20751953 58.36865234 C-0.23560703 60.10846314 -0.25688194 61.84839865 -0.27099609 63.58837891 C-0.29259653 66.1012297 -0.33932986 68.61260033 -0.390625 71.125 C-0.39246796 72.27705933 -0.39246796 72.27705933 -0.39434814 73.45239258 C-0.57885813 80.3782078 -2.86902248 85.46586457 -7.3125 90.75 C-12.0123971 94.68479757 -15.64424562 97.05167084 -21.734375 97.609375 C-22.53584961 97.68639648 -23.33732422 97.76341797 -24.16308594 97.84277344 C-24.76926758 97.8946582 -25.37544922 97.94654297 -26 98 C-26.04647502 88.37666714 -26.08194597 78.75337331 -26.10362434 69.12995243 C-26.11403231 64.66073181 -26.12813657 60.19158834 -26.15087891 55.72241211 C-26.1727143 51.40411566 -26.18459106 47.08589313 -26.18975449 42.7675457 C-26.19343112 41.12544022 -26.20061038 39.48333848 -26.21146011 37.84126472 C-26.35169078 15.72502933 -26.35169078 15.72502933 -20 8 C-14.27622587 2.31710997 -8.48543012 -1.68900368 0 0 Z " fill="#005F9F" transform="translate(837,880)"/>
<path d="M0 0 C241.89 0 483.78 0 733 0 C733 2.64 733 5.28 733 8 C491.11 8 249.22 8 0 8 C0 5.36 0 2.72 0 0 Z " fill="#005F9F" transform="translate(803,856)"/>
<path d="M0 0 C1.27746094 -0.02900391 2.55492187 -0.05800781 3.87109375 -0.08789062 C14.85701429 -0.16098017 24.08235177 1.52571001 32.21484375 9.32421875 C40.13360909 18.14402522 42.30842059 26.10143341 42.3359375 37.70703125 C42.3459227 39.1881263 42.3459227 39.1881263 42.35610962 40.69914246 C42.36619861 42.78093616 42.37092781 44.86276195 42.37060547 46.94458008 C42.3749722 50.1048802 42.41131485 53.26377516 42.44921875 56.42382812 C42.45508923 58.45572444 42.45905707 60.48762732 42.4609375 62.51953125 C42.47530853 63.45215286 42.48967957 64.38477448 42.50448608 65.34565735 C42.43996651 74.75743737 39.55438443 82.60195084 33.0546875 89.4921875 C24.23469876 97.30609387 15.37618128 99.63867623 3.91015625 99.5078125 C2.4933683 99.50356766 2.4933683 99.50356766 1.04795837 99.49923706 C-1.94732724 99.48810684 -4.94230586 99.4630156 -7.9375 99.4375 C-9.9772092 99.42746095 -12.01692312 99.41833672 -14.05664062 99.41015625 C-19.0378774 99.38819096 -24.01888678 99.35371076 -29 99.3125 C-29.11618907 88.66346903 -29.20486466 78.01459051 -29.25906086 67.36505318 C-29.28508117 62.41924671 -29.32034002 57.47387603 -29.37719727 52.52832031 C-29.43178817 47.74963004 -29.46147736 42.97135719 -29.47438622 38.192379 C-29.48357772 36.37520661 -29.50152622 34.55805536 -29.52865028 32.74106216 C-29.80186314 13.66905577 -29.80186314 13.66905577 -24 6.3125 C-16.7337176 -0.50146802 -9.41946311 0.06960194 0 0 Z M-7 21.3125 C-7 39.7925 -7 58.2725 -7 77.3125 C8.84437459 78.88415056 8.84437459 78.88415056 16 73.3125 C19.85090221 68.79355137 20.5966018 65.05854431 20.53125 59.28125 C20.53699036 58.15003723 20.53699036 58.15003723 20.54284668 56.99597168 C20.54555594 55.4092474 20.53826395 53.82247771 20.52148438 52.23583984 C20.50005732 49.81896587 20.52131619 47.40506372 20.546875 44.98828125 C20.54423154 43.44009766 20.53910619 41.89191591 20.53125 40.34375 C20.53934692 39.62795776 20.54744385 38.91216553 20.55578613 38.17468262 C20.46170922 33.09422871 19.15411265 30.24569301 16 26.3125 C9.07613012 19.74370037 2.76639231 21.3125 -7 21.3125 Z " fill="#005F9F" transform="translate(1372,878.6875)"/>
<path d="M0 0 C6.92918711 -0.10098193 11.32561842 0.94020397 17 5 C21.73702451 10.45330846 24.10037087 15.39680596 24.18945312 22.63305664 C24.20617065 23.78757828 24.22288818 24.94209991 24.2401123 26.13160706 C24.25368774 27.37852829 24.26726318 28.62544952 24.28125 29.91015625 C24.30886414 31.82772987 24.30886414 31.82772987 24.33703613 33.78404236 C24.40588516 38.57294181 24.46629899 43.36192044 24.52606201 48.15093994 C24.5850337 52.84159516 24.651153 57.53211573 24.71875 62.22265625 C24.73232544 63.47160172 24.74590088 64.72054718 24.7598877 66.00733948 C24.77660522 67.15870895 24.79332275 68.31007843 24.81054688 69.49633789 C24.82307495 70.51321182 24.83560303 71.53008575 24.84851074 72.57777405 C24.84236753 75.01016167 24.84236753 75.01016167 26 77 C28.79224073 77.08071788 31.58216566 77.14035408 34.375 77.1875 C35.1690625 77.21263672 35.963125 77.23777344 36.78125 77.26367188 C38.85586148 77.29004405 40.93100865 77.15486462 43 77 C45.26117972 73.60823042 45.25036411 72.43788494 45.25537109 68.4621582 C45.26233002 67.32700272 45.26928894 66.19184723 45.27645874 65.02229309 C45.27546173 63.79419418 45.27446472 62.56609528 45.2734375 61.30078125 C45.29373334 58.70377179 45.31458425 56.10676661 45.3359375 53.50976562 C45.36063484 49.41284424 45.3758387 45.31598565 45.38085938 41.21899414 C45.38686952 37.26685967 45.42420971 33.31525085 45.4609375 29.36328125 C45.45589203 28.1453035 45.45084656 26.92732574 45.44564819 25.67243958 C45.53702449 17.7432738 46.41455847 12.15494119 51.74609375 5.9765625 C58.00635287 0.97413835 62.05934206 -0.08077984 70 0 C70.06964775 10.2924951 70.1228862 20.58493372 70.15543652 30.87761688 C70.17106257 35.6574285 70.19224475 40.43707834 70.22631836 45.21679688 C70.2590212 49.8333545 70.27687602 54.44975695 70.28463173 59.06642151 C70.29015567 60.82380107 70.30094249 62.58117258 70.31719017 64.33848572 C70.33911002 66.80852313 70.34196091 69.27792716 70.34057617 71.74804688 C70.351362 72.46734375 70.36214783 73.18664062 70.3732605 73.92773438 C70.3354365 80.20236232 68.64788076 85.27465874 65.375 90.6875 C57.07713776 98.76699744 48.41841755 99.20864861 37.37524414 99.24023438 C35.33632777 99.24988719 33.29844352 99.28091172 31.25976562 99.3125 C22.16145639 99.34840847 13.6870009 99.12665904 6.625 92.75 C5.99851562 92.20859375 5.37203125 91.6671875 4.7265625 91.109375 C0.35056692 85.76313606 -0.43848635 80.40992013 -0.34057617 73.67797852 C-0.34101425 72.87716354 -0.34145233 72.07634857 -0.34190369 71.25126648 C-0.33982796 68.62689092 -0.31655514 66.00316902 -0.29296875 63.37890625 C-0.28736846 61.55045419 -0.2831004 59.72199761 -0.28010559 57.89353943 C-0.26869094 53.09798598 -0.23925304 48.30270825 -0.20599365 43.50726318 C-0.17521969 38.6070936 -0.16158463 33.70687914 -0.14648438 28.80664062 C-0.11437995 19.20430643 -0.06322472 9.60217621 0 0 Z " fill="#005F9F" transform="translate(911,881)"/>
<path d="M0 0 C6.18752716 3.46179493 9.12964934 8.68388373 11.12353516 15.35986328 C11.55589899 16.9442449 11.97773125 18.53152704 12.390625 20.12109375 C12.62451935 20.98841629 12.8584137 21.85573883 13.09939575 22.74934387 C13.85951904 25.57656899 14.60575329 28.40724978 15.3515625 31.23828125 C15.87574989 33.20148782 16.40082491 35.16445759 16.92675781 37.12719727 C18.00186325 41.14278989 19.07205941 45.15964928 20.13964844 49.17724609 C21.64206315 54.81641346 23.18261011 60.44455643 24.734375 66.0703125 C25.42784296 68.59403427 26.12081753 71.11789103 26.81365967 73.64178467 C27.25331249 75.23948811 27.69474127 76.83670398 28.13800049 78.43341064 C28.75156635 80.64674083 29.35716558 82.86210645 29.9609375 85.078125 C30.30350586 86.32198975 30.64607422 87.56585449 30.99902344 88.84741211 C31.64474341 91.7460014 31.88460254 94.16261769 31.7265625 97.11328125 C18.27637227 98.03593149 18.27637227 98.03593149 12.3046875 93.51953125 C6.4739574 88.32383116 6.2297082 85.45710027 3.7265625 77.11328125 C-3.5334375 77.11328125 -10.7934375 77.11328125 -18.2734375 77.11328125 C-19.2634375 80.41328125 -20.2534375 83.71328125 -21.2734375 87.11328125 C-24.68737948 91.89280003 -27.53959581 95.34100291 -33.2734375 97.11328125 C-37.61946699 97.34174636 -41.92628444 97.28742536 -46.2734375 97.11328125 C-45.69700231 88.00129672 -43.12019512 79.3998986 -40.72265625 70.63671875 C-40.26253552 68.94007558 -39.80272738 67.2433476 -39.34321594 65.54653931 C-38.38190081 62.00339606 -37.41544632 58.46170368 -36.44555664 54.92089844 C-35.2070782 50.39715332 -33.98366207 45.86948947 -32.76433086 41.34055138 C-31.81973035 37.84013761 -30.8660773 34.34223795 -29.90983009 30.84498978 C-29.45511685 29.17695775 -29.00342788 27.50809807 -28.55490685 25.83839035 C-27.92573675 23.50075888 -27.28413782 21.16687583 -26.6394043 18.83349609 C-26.45899094 18.15279556 -26.27857758 17.47209503 -26.09269714 16.77076721 C-24.43336044 10.85404108 -22.04645355 4.58686799 -16.6484375 1.17578125 C-11.2518391 -1.84350521 -5.78225695 -2.25527891 0 0 Z M-8.2734375 31.11328125 C-9.27940765 34.88254794 -10.27718552 38.65393537 -11.2734375 42.42578125 C-11.55960938 43.49763672 -11.84578125 44.56949219 -12.140625 45.67382812 C-12.41132812 46.70185547 -12.68203125 47.72988281 -12.9609375 48.7890625 C-13.21230469 49.73692627 -13.46367188 50.68479004 -13.72265625 51.66137695 C-14.38302368 54.18229014 -14.38302368 54.18229014 -14.2734375 57.11328125 C-9.6534375 57.11328125 -5.0334375 57.11328125 -0.2734375 57.11328125 C-1.72783789 48.26567888 -3.87520375 39.7399376 -6.2734375 31.11328125 C-6.9334375 31.11328125 -7.5934375 31.11328125 -8.2734375 31.11328125 Z " fill="#005F9F" transform="translate(1499.2734375,879.88671875)"/>
<path d="M0 0 C1.07770157 0.00424484 2.15540314 0.00848969 3.26576233 0.01286316 C6.68915371 0.02958156 10.11194445 0.06722192 13.53515625 0.10546875 C15.86392376 0.12052439 18.19270054 0.13421125 20.52148438 0.14648438 C26.21374469 0.17946267 31.90565754 0.22959392 37.59765625 0.29296875 C36.51776444 9.45059047 34.62069415 15.16500681 27.28125 21.1640625 C23.73875533 23.53942436 20.52935369 23.41001897 16.3984375 23.390625 C15.18994141 23.38740234 13.98144531 23.38417969 12.73632812 23.38085938 C10.84237305 23.36829102 10.84237305 23.36829102 8.91015625 23.35546875 C6.99879883 23.34870117 6.99879883 23.34870117 5.04882812 23.34179688 C1.89841755 23.32999758 -1.25196894 23.31206193 -4.40234375 23.29296875 C-4.40234375 27.91296875 -4.40234375 32.53296875 -4.40234375 37.29296875 C4.50765625 37.29296875 13.41765625 37.29296875 22.59765625 37.29296875 C21.74168837 44.9966797 20.40925508 51.81027792 18.59765625 59.29296875 C11.00765625 59.29296875 3.41765625 59.29296875 -4.40234375 59.29296875 C-4.40234375 64.24296875 -4.40234375 69.19296875 -4.40234375 74.29296875 C7.80765625 74.29296875 20.01765625 74.29296875 32.59765625 74.29296875 C31.49813275 83.08915674 30.26005599 87.53907806 23.59765625 93.29296875 C16.93633703 98.37586537 10.30712427 97.92475262 2.16015625 97.85546875 C0.87560547 97.87931641 -0.40894531 97.90316406 -1.73242188 97.92773438 C-10.29657078 97.91449767 -15.74831676 96.85212316 -21.91137695 90.81469727 C-26.35346023 85.86608153 -27.64972596 81.5015241 -27.67700195 74.96142578 C-27.68653397 73.70306915 -27.69606598 72.44471252 -27.70588684 71.14822388 C-27.70562536 69.78240938 -27.70468808 68.41659487 -27.703125 67.05078125 C-27.70701581 65.63979975 -27.71135128 64.22881941 -27.71611023 62.81784058 C-27.72355932 59.86403605 -27.72329105 56.91035107 -27.71801758 53.95654297 C-27.71222928 50.18501051 -27.72914432 46.41397016 -27.75236225 42.642519 C-27.7671486 39.72900568 -27.76796459 36.81560948 -27.76485252 33.90206528 C-27.76536343 32.51229758 -27.77055763 31.12252294 -27.78066444 29.7327919 C-27.83825408 20.7056703 -27.70203303 13.68024262 -21.65234375 6.54296875 C-21.20375 5.99125 -20.75515625 5.43953125 -20.29296875 4.87109375 C-14.12841935 -0.27452187 -7.65847655 -0.1144968 0 0 Z " fill="#005F9F" transform="translate(1297.40234375,879.70703125)"/>
<path d="M0 0 C1.29966202 0.0028299 2.59932404 0.00565979 3.93836975 0.00857544 C7.3726488 0.01616595 10.80675532 0.03577427 14.2409668 0.0579834 C17.75371976 0.07854129 21.26650094 0.0875983 24.77929688 0.09765625 C31.65632031 0.11902514 38.53322997 0.15310486 45.41015625 0.1953125 C45.47824816 6.36255763 45.07163354 10.18486989 41.41015625 15.1953125 C35.96325188 20.25863205 31.71735964 22.33840071 24.22265625 22.2578125 C22.59263672 22.24427734 22.59263672 22.24427734 20.9296875 22.23046875 C20.09824219 22.21886719 19.26679687 22.20726562 18.41015625 22.1953125 C18.41681808 22.9336734 18.42347992 23.6720343 18.43034363 24.43276978 C18.49056604 31.40630343 18.53618715 38.37979798 18.56559277 45.35352516 C18.58121904 48.93843342 18.60240105 52.523126 18.63647461 56.10791016 C18.66917754 59.57033775 18.68703211 63.03255846 18.69478798 66.49512863 C18.70299218 68.4526833 18.72639418 70.41015526 18.75004578 72.36758423 C18.75027237 73.56837616 18.75049896 74.76916809 18.75073242 76.00634766 C18.75739426 77.05891754 18.76405609 78.11148743 18.7709198 79.19595337 C18.0429585 85.24816504 14.97681319 89.33902441 10.41015625 93.1953125 C4.94070676 96.73030406 2.31215267 97.1953125 -4.58984375 97.1953125 C-4.58984375 72.4453125 -4.58984375 47.6953125 -4.58984375 22.1953125 C-13.49984375 22.1953125 -22.40984375 22.1953125 -31.58984375 22.1953125 C-30.57189198 13.03374655 -29.97807116 10.50824597 -23.77734375 4.4453125 C-16.41562773 -0.75119293 -8.70660707 -0.07164609 0 0 Z " fill="#005F9F" transform="translate(1088.58984375,879.8046875)"/>
<path d="M0 0 C0 24.42 0 48.84 0 74 C12.87 74 25.74 74 39 74 C37.91591478 84.84085217 36.44314517 88.21639575 28.68359375 94.80078125 C25.61446333 96.98691359 22.89187255 97.12307578 19.25317383 97.11352539 C18.29240433 97.11344986 17.33163483 97.11337433 16.3417511 97.11329651 C15.30729355 97.10813522 14.272836 97.10297394 13.20703125 97.09765625 C11.61528328 97.09553383 11.61528328 97.09553383 9.99137878 97.09336853 C6.59839065 97.08776606 3.20546823 97.07521314 -0.1875 97.0625 C-2.48632717 97.05748532 -4.78515538 97.05292236 -7.08398438 97.04882812 C-12.72267872 97.03779583 -18.36133466 97.0210553 -24 97 C-24.06974438 87.13319979 -24.1229348 77.26645897 -24.15543652 67.39946175 C-24.17104171 62.81700002 -24.1921851 58.2347079 -24.22631836 53.65234375 C-24.25909648 49.22380804 -24.27689165 44.79543469 -24.28463173 40.36678696 C-24.2901423 38.68362755 -24.3009025 37.00047625 -24.31719017 35.31738663 C-24.51843861 13.64441288 -24.51843861 13.64441288 -17.8125 6.0625 C-12.22921938 1.06817303 -7.41548636 0 0 0 Z " fill="#005F9F" transform="translate(1014,880)"/>
<path d="M0 0 C0.33 0 0.66 0 1 0 C1.80592171 24.98357314 -2.87749953 47.10245446 -15 69 C-15.54398438 69.98742187 -16.08796875 70.97484375 -16.6484375 71.9921875 C-33.51984451 100.385531 -63.45283246 112.75416233 -92.6875 124.5625 C-119.77988748 135.50612985 -146.80669349 147.86291058 -161 175 C-162.52990661 178.61575113 -163.85618237 182.24496714 -165 186 C-165.33 186 -165.66 186 -166 186 C-167.16594352 169.38530477 -159.58338962 152.5791691 -148.94140625 140.16015625 C-148.30074219 139.44730469 -147.66007813 138.73445313 -147 138 C-146.49339844 137.40058594 -145.98679687 136.80117187 -145.46484375 136.18359375 C-129.80592188 118.92273614 -104.5036205 110.90641558 -83.45782471 102.46868896 C-50.83212008 89.37694307 -25.05507609 72.93246617 -10 40 C-6.14024009 30.65933334 -3.86436361 20.90443169 -2 11 C-1.79375 9.90429688 -1.5875 8.80859375 -1.375 7.6796875 C-0.90398051 5.12179002 -0.44453464 2.56261147 0 0 Z " fill="#7AAE40" transform="translate(668,933)"/>
<path d="M0 0 C0.06969739 10.01445548 0.12291119 20.02885267 0.15543652 30.04350185 C0.17105184 34.69437198 0.19221412 39.3450754 0.22631836 43.99584961 C0.25905987 48.48921903 0.27688406 52.98242872 0.28463173 57.47590828 C0.2901488 59.18501358 0.30092197 60.89411073 0.31719017 62.60314751 C0.51520102 84.2789714 0.51520102 84.2789714 -7.125 92.4921875 C-12.12151237 96.5102162 -17.69109265 98.10570653 -24 98 C-24.09291115 87.59442516 -24.1638719 77.18894992 -24.20724869 66.78304386 C-24.22807336 61.95050914 -24.25629691 57.11825941 -24.30175781 52.28588867 C-24.34539891 47.61744342 -24.36917558 42.94927133 -24.37950897 38.28063774 C-24.38686768 36.50452821 -24.40123728 34.72843268 -24.42292023 32.95244026 C-24.65616287 13.04630998 -24.65616287 13.04630998 -18.29058838 6.14735413 C-12.71015954 0.83741934 -7.57462208 -0.08932337 0 0 Z " fill="#005F9F" transform="translate(1162,880)"/>
<path d="M0 0 C0.09285293 10.55323055 0.16384256 21.10636323 0.20724869 31.65991974 C0.22808595 36.56086195 0.25633285 41.4615238 0.30175781 46.36230469 C0.34535356 51.09558349 0.36916613 55.82859334 0.37950897 60.5620575 C0.38687575 62.36411266 0.40126133 64.16615381 0.42292023 65.96809387 C0.45213733 68.50053228 0.45594846 71.03187216 0.45410156 73.56445312 C0.47567322 74.67145065 0.47567322 74.67145065 0.49768066 75.80081177 C0.44336979 82.72425479 -1.92088582 87.87363322 -6.75 92.8125 C-12.1087582 96.41935648 -16.5451108 98.08167384 -23 98 C-23.09285293 87.44676945 -23.16384256 76.89363677 -23.20724869 66.34008026 C-23.22808595 61.43913805 -23.25633285 56.5384762 -23.30175781 51.63769531 C-23.34535356 46.90441651 -23.36916613 42.17140666 -23.37950897 37.4379425 C-23.38687575 35.63588734 -23.40126133 33.83384619 -23.42292023 32.03190613 C-23.45213733 29.49946772 -23.45594846 26.96812784 -23.45410156 24.43554688 C-23.46848267 23.69754852 -23.48286377 22.95955017 -23.49768066 22.19918823 C-23.4481727 15.88801096 -21.38865355 10.76805937 -17.25390625 5.9765625 C-11.37684947 1.28034623 -7.6496326 -0.08936487 0 0 Z " fill="#005F9F" transform="translate(1447,880)"/>
<path d="M0 0 C0.88365234 0.02255859 1.76730469 0.04511719 2.67773438 0.06835938 C4.8483891 0.12702572 7.0181669 0.21670021 9.1875 0.3125 C9.3039862 4.04140255 9.37484576 7.76983514 9.4375 11.5 C9.48777344 13.08264648 9.48777344 13.08264648 9.5390625 14.69726562 C9.63821882 22.55540413 9.63821882 22.55540413 7.296875 26.48828125 C4.3674447 29.02169597 2.83468701 29.43677596 -0.9453125 29.41015625 C-1.75097656 29.40693359 -2.55664062 29.40371094 -3.38671875 29.40039062 C-4.22847656 29.39201172 -5.07023438 29.38363281 -5.9375 29.375 C-6.78699219 29.37048828 -7.63648438 29.36597656 -8.51171875 29.36132812 C-10.61200909 29.34952874 -12.7122633 29.33159306 -14.8125 29.3125 C-14.95803599 25.41706123 -15.04665059 21.52232349 -15.125 17.625 C-15.16689453 16.52220703 -15.20878906 15.41941406 -15.25195312 14.28320312 C-15.37302641 6.26815159 -15.37302641 6.26815159 -12.90625 2.0625 C-8.53002854 -0.4129384 -4.93280082 -0.23909922 0 0 Z " fill="#005F9F" transform="translate(778.8125,809.6875)"/>
<path d="" fill="#005F9F" transform="translate(0,0)"/>
</svg>
